<?xml version="1.0" encoding="UTF-8"?>
<svg version="1.1" xmlns="http://www.w3.org/2000/svg" width="512" height="512">
<path d="M0 0 C30.26932113 0 30.26932113 0 39.1875 1.1875 C40.78706543 1.39040649 40.78706543 1.39040649 42.41894531 1.59741211 C93.9435228 8.50170549 142.12365397 30.63467271 180.5078125 65.73046875 C182.13205496 67.20959863 183.77213216 68.67158119 185.4296875 70.11328125 C214.80607564 95.78242552 236.24758219 130.82767417 250 167 C250.30131836 167.78407227 250.60263672 168.56814453 250.91308594 169.37597656 C257.82772539 187.67655941 262.14348043 207.54271048 264 227 C264.16435547 228.42119141 264.16435547 228.42119141 264.33203125 229.87109375 C266.62698677 252.91244719 265.54113536 277.29432321 261 300 C174.87 300 88.74 300 0 300 C0 267.66 0 235.32 0 202 C51.81 202 103.62 202 157 202 C137.38086582 157.85694809 110.63534835 126.18688151 65 108 C43.66702147 100.24292816 22.74183878 98.13709194 0 97 C0 64.99 0 32.98 0 0 Z " fill="#39393A" transform="translate(247,0)"/>
<path d="M0 0 C33.33 0 66.66 0 101 0 C101.99 12.375 101.99 12.375 103 25 C108.40118346 58.75739662 121.56897203 92.17702298 147 116 C148.66666667 117.66666667 150.33333333 119.33333333 152 121 C179.53534971 148.03553313 218.45279363 162.88499751 256.7097168 164.65917969 C259.70283848 164.80425542 262.1376032 165.04586773 265 166 C265 198.67 265 231.34 265 265 C248.44277108 265 248.44277108 265 240.5625 264.25 C239.63493896 264.16202148 238.70737793 264.07404297 237.75170898 263.98339844 C184.70980773 258.58613672 134.99005144 238.12774088 94 204 C93.47970215 203.56993652 92.9594043 203.13987305 92.42333984 202.69677734 C79.71297552 192.15674347 68.23467224 180.98480526 58 168 C57.0703911 166.88057919 56.13794162 165.76351308 55.203125 164.6484375 C16.41106745 118.00643876 0 59.80603716 0 0 Z " fill="#39393A" transform="translate(0,247)"/>
</svg>
